<svg class="svg-icon" style="width: current; height: current;vertical-align: middle;fill: current;overflow: hidden;" viewBox="0 0 1024 1024" version="1.1" xmlns="http://www.w3.org/2000/svg"><path d="M787.247407 226.512593 237.700741 226.512593c-34.986667 0-53.94963 18.014815-53.94963 53.001481l0 464.971852c0 34.986667 18.962963 53.001481 53.94963 53.001481l549.451852 0c34.986667 0 53.001481-18.014815 53.001481-53.001481L840.154074 279.514074C840.248889 244.527407 822.234074 226.512593 787.247407 226.512593zM808.391111 744.485926c0 11.662222-9.481481 21.143704-21.143704 21.143704L237.700741 765.62963c-11.662222 0-21.143704-9.481481-21.143704-21.143704L216.557037 644.171852c25.315556 17.92 62.008889 36.788148 104.201481 36.788148 49.208889 0 102.020741-41.434074 157.771852-85.333333 56.604444-44.468148 115.2-90.548148 165.831111-90.548148 90.832593 0 162.891852 79.928889 163.65037 80.782222l0.379259-0.284444L808.391111 744.485926zM808.391111 538.927407c-34.038519-27.97037-93.108148-65.611852-163.934815-65.611852-65.327407 0-129.706667 50.631111-192 99.555556-47.691852 37.451852-97.09037 76.325926-131.697778 76.325926-48.545185 0-90.074074-35.65037-104.201481-49.303704L216.557037 279.514074c0-11.662222 9.481481-21.143704 21.143704-21.143704l549.546667 0c11.662222 0 21.143704 9.481481 21.143704 21.143704L808.391111 538.927407z"  /><path d="M340.764444 363.52c-40.96 0-74.24 33.185185-74.24 74.24 0 40.96 33.28 74.24 74.24 74.24 40.96 0 74.24-33.28 74.24-74.24C415.004444 396.8 381.819259 363.52 340.764444 363.52zM341.143704 479.952593c-23.324444 0-42.192593-18.868148-42.192593-42.192593 0-23.324444 18.868148-42.192593 42.192593-42.192593 23.324444 0 42.192593 18.868148 42.192593 42.192593C383.241481 461.084444 364.373333 479.952593 341.143704 479.952593z"  /></svg>